<svg width="28" height="28" viewBox="0 0 28 28" fill="none" xmlns="http://www.w3.org/2000/svg">
    <path d="M3.01273 7.03897H0.999878V10.5574M25.4057 7.03897H27.4186V10.5574" stroke="#2B4255"/>
    <path d="M8.54811 24.1533V26.1661C8.54811 26.7237 8.09924 27.1725 7.54168 27.1725H5.52883C4.97127 27.1725 4.5224 26.7237 4.5224 26.1661V24.1533M23.6445 24.1533V26.1661C23.6445 26.7237 23.1956 27.1725 22.6381 27.1725H20.6252C20.0677 27.1725 19.6188 26.7237 19.6188 26.1661V24.1533" fill="#34485C"/>
    <path d="M24.651 24.1521L3.50802 24.1532C2.50965 24.1532 2.50964 23.1468 2.50964 23.1468V2.51601C2.50964 1.1221 3.63181 -6.10352e-05 5.02571 -6.10352e-05H23.1414C24.5353 -6.10352e-05 25.6575 1.1211 25.6575 2.51601V23.1468C25.6575 23.1468 25.6575 24.1532 24.651 24.1532V24.1521Z" fill="url(#paint0_linear_56_876)"/>
    <path d="M25.6616 19.1262H2.5057C1.95209 19.1262 1.5033 19.575 1.5033 20.1287V21.144C1.5033 21.6977 1.95209 22.1465 2.5057 22.1465H25.6616C26.2152 22.1465 26.664 21.6977 26.664 21.144V20.1287C26.664 19.575 26.2152 19.1262 25.6616 19.1262Z" fill="#34485C"/>
    <path d="M2.50964 4.52759H25.6575M2.50964 14.6018H25.6575" stroke="#34485C"/>
    <path d="M4.01917 17.112H7.03844M21.1284 17.112H24.1477" stroke="white"/>
    <path d="M14.0835 4.33255V14.7008" stroke="#34485C"/>
    <path d="M3.51581 6.03757H12.5736V13.0845H3.51581V6.03757ZM15.5929 6.03757H24.6508V13.0845H15.5929V6.03757Z" fill="#E9EDED"/>
    <defs>
        <linearGradient id="paint0_linear_56_876" x1="14.0835" y1="-6.10352e-05" x2="14.0835" y2="24.1532" gradientUnits="userSpaceOnUse">
            <stop offset="0.603125" stop-color="#036785"/>
            <stop offset="1" stop-color="#FF8EED"/>
        </linearGradient>
    </defs>
</svg>
