<svg width="25" height="25" viewBox="0 0 25 25" fill="none" xmlns="http://www.w3.org/2000/svg">
    <path d="M20.5399 7.26134L14.7799 3.23134C13.2099 2.13134 10.7999 2.19134 9.28988 3.36134L4.27988 7.27134C3.27988 8.05134 2.48988 9.65134 2.48988 10.9113V17.8113C2.48988 20.3613 4.55988 22.4413 7.10988 22.4413H17.8899C20.4399 22.4413 22.5099 20.3713 22.5099 17.8213V11.0413C22.5099 9.69134 21.6399 8.03134 20.5399 7.26134ZM13.2499 18.4413C13.2499 18.8513 12.9099 19.1913 12.4999 19.1913C12.0899 19.1913 11.7499 18.8513 11.7499 18.4413V15.4413C11.7499 15.0313 12.0899 14.6913 12.4999 14.6913C12.9099 14.6913 13.2499 15.0313 13.2499 15.4413V18.4413Z" stroke="#6B7386" stroke-width="1.5" stroke-linecap="round" stroke-linejoin="round"/>
</svg>
