<svg width="25" height="25" viewBox="0 0 25 25" fill="none" xmlns="http://www.w3.org/2000/svg">
    <path d="M20.5399 7.2611L14.7799 3.2311C13.2099 2.1311 10.7999 2.1911 9.28988 3.3611L4.27988 7.2711C3.27988 8.0511 2.48988 9.6511 2.48988 10.9111V17.8111C2.48988 20.3611 4.55988 22.4411 7.10988 22.4411H17.8899C20.4399 22.4411 22.5099 20.3711 22.5099 17.8211V11.0411C22.5099 9.6911 21.6399 8.0311 20.5399 7.2611ZM13.2499 18.4411C13.2499 18.8511 12.9099 19.1911 12.4999 19.1911C12.0899 19.1911 11.7499 18.8511 11.7499 18.4411V15.4411C11.7499 15.0311 12.0899 14.6911 12.4999 14.6911C12.9099 14.6911 13.2499 15.0311 13.2499 15.4411V18.4411Z" fill="#333D55"/>
</svg>
