<svg width="25" height="25" viewBox="0 0 25 25" fill="none" xmlns="http://www.w3.org/2000/svg">
    <path d="M9.74988 8.94116H10.4999V15.6912H11.2499M20.2499 10.4412C20.2499 13.027 19.2226 15.507 17.3942 17.3355C15.5657 19.1639 13.0857 20.1912 10.4999 20.1912C7.91402 20.1912 5.43407 19.1639 3.60559 17.3355C1.77711 15.507 0.749878 13.027 0.749878 10.4412C0.749878 7.8553 1.77711 5.37535 3.60559 3.54687C5.43407 1.71839 7.91402 0.691162 10.4999 0.691162C13.0857 0.691162 15.5657 1.71839 17.3942 3.54687C19.2226 5.37535 20.2499 7.8553 20.2499 10.4412Z" stroke="#6B7386" stroke-width="1.25" stroke-linecap="round" stroke-linejoin="round"/>
    <path d="M11.2499 5.56616C11.2499 5.76507 11.1709 5.95584 11.0302 6.09649C10.8896 6.23714 10.6988 6.31616 10.4999 6.31616C10.301 6.31616 10.1102 6.23714 9.96955 6.09649C9.8289 5.95584 9.74988 5.76507 9.74988 5.56616C9.74988 5.36725 9.8289 5.17648 9.96955 5.03583C10.1102 4.89518 10.301 4.81616 10.4999 4.81616C10.6988 4.81616 10.8896 4.89518 11.0302 5.03583C11.1709 5.17648 11.2499 5.36725 11.2499 5.56616Z" fill="#6B7386" stroke="#6B7386" stroke-width="0.625"/>
</svg>
