<svg width="25" height="25" viewBox="0 0 25 25" fill="none" xmlns="http://www.w3.org/2000/svg">
    <path d="M20.2499 10.4413C20.2499 13.0271 19.2226 15.5071 17.3942 17.3356C15.5657 19.1641 13.0857 20.1913 10.4999 20.1913C7.91402 20.1913 5.43407 19.1641 3.60559 17.3356C1.77711 15.5071 0.749878 13.0271 0.749878 10.4413C0.749878 7.85542 1.77711 5.37547 3.60559 3.54699C5.43407 1.71851 7.91402 0.691284 10.4999 0.691284C13.0857 0.691284 15.5657 1.71851 17.3942 3.54699C19.2226 5.37547 20.2499 7.85542 20.2499 10.4413Z" fill="#333D55" stroke="#333D55" stroke-width="1.25" stroke-linecap="round" stroke-linejoin="round"/>
    <path d="M9.74988 8.94128H10.4999V15.6913H11.2499" stroke="white" stroke-width="1.25" stroke-linecap="round" stroke-linejoin="round"/>
    <path d="M11.2499 5.56628C11.2499 5.7652 11.1709 5.95596 11.0302 6.09661C10.8896 6.23727 10.6988 6.31628 10.4999 6.31628C10.301 6.31628 10.1102 6.23727 9.96955 6.09661C9.8289 5.95596 9.74988 5.7652 9.74988 5.56628C9.74988 5.36737 9.8289 5.17661 9.96955 5.03595C10.1102 4.8953 10.301 4.81628 10.4999 4.81628C10.6988 4.81628 10.8896 4.8953 11.0302 5.03595C11.1709 5.17661 11.2499 5.36737 11.2499 5.56628Z" fill="white" stroke="white" stroke-width="0.625"/>
</svg>
