<svg width="22" height="35" viewBox="0 0 22 35" fill="none" xmlns="http://www.w3.org/2000/svg">
    <path d="M13.2931 6.14923C15.0515 6.14923 16.4579 4.78287 16.4579 3.07462C16.4579 1.36628 15.0515 0 13.2931 0C11.5346 0 10.1278 1.36628 10.1278 3.07462C10.1278 4.78287 11.5346 6.14923 13.2931 6.14923ZM13.1505 15.1145C13.2384 15.274 13.4062 15.3731 13.5883 15.3731H21.0222C21.2983 15.3731 21.5222 15.1492 21.5222 14.8731V12.7985C21.5222 12.5223 21.2983 12.2985 21.0222 12.2985H16.093C15.9257 12.2985 15.7694 12.2147 15.6767 12.0754L12.2801 6.96915C11.671 6.07237 10.8451 5.57512 9.83249 5.57512C9.57944 5.57512 9.13396 5.61594 8.81975 5.70941L0.343726 8.49588C0.138553 8.56333 -0.00012207 8.7549 -0.00012207 8.97088V16.7178C-0.00012207 16.994 0.223736 17.2178 0.499878 17.2178H2.66492C2.94107 17.2178 3.16492 16.994 3.16492 16.7178V11.4124C3.16492 11.2053 3.29256 11.0197 3.4859 10.9455L5.46545 10.1864C5.84505 10.0408 6.23046 10.3851 6.1285 10.7787L0.161892 33.8103C0.0798756 34.1269 0.318871 34.4357 0.645914 34.4357H2.81195C3.02356 34.4357 3.21225 34.3025 3.2831 34.1031L7.34123 22.6814C7.47436 22.3067 7.97044 22.2298 8.21075 22.5467L11.5298 26.9226C11.5957 27.0096 11.6314 27.1157 11.6314 27.2248V33.9357C11.6314 34.2118 11.8553 34.4357 12.1314 34.4357H14.1382C14.4144 34.4357 14.6382 34.2118 14.6382 33.9357V24.7377C14.6382 24.6456 14.6128 24.5554 14.5648 24.4768L10.2462 17.4151C10.1697 17.29 10.152 17.1375 10.1977 16.9982L11.3295 13.5534C11.4659 13.1384 12.0314 13.0855 12.2424 13.468L13.1505 15.1145Z" fill="white"/>
</svg>
