<svg width="25" height="25" viewBox="0 0 25 25" fill="none" xmlns="http://www.w3.org/2000/svg">
    <path d="M19.4399 5.86123L14.2699 2.87123C13.2799 2.30123 11.7299 2.30123 10.7399 2.87123L5.51988 5.88123C3.44988 7.28123 3.32988 7.49123 3.32988 9.72123V15.1512C3.32988 17.3812 3.44988 17.6012 5.55988 19.0212L10.7299 22.0112C11.2299 22.3012 11.8699 22.4412 12.4999 22.4412C13.1299 22.4412 13.7699 22.3012 14.2599 22.0112L19.4799 19.0012C21.5499 17.6012 21.6699 17.3912 21.6699 15.1612V9.72123C21.6699 7.49123 21.5499 7.28123 19.4399 5.86123ZM12.4999 15.6912C10.7099 15.6912 9.24988 14.2312 9.24988 12.4412C9.24988 10.6512 10.7099 9.19123 12.4999 9.19123C14.2899 9.19123 15.7499 10.6512 15.7499 12.4412C15.7499 14.2312 14.2899 15.6912 12.4999 15.6912Z" fill="#333D55"/>
</svg>
