<svg width="25" height="25" viewBox="0 0 25 25" fill="none" xmlns="http://www.w3.org/2000/svg">
    <path d="M3.49988 9.55127V15.3213C3.49988 17.4413 3.49988 17.4413 5.49988 18.7913L10.9999 21.9713C11.8299 22.4513 13.1799 22.4513 13.9999 21.9713L19.4999 18.7913C21.4999 17.4413 21.4999 17.4413 21.4999 15.3313V9.55127C21.4999 7.44127 21.4999 7.44127 19.4999 6.09127L13.9999 2.91127C13.1799 2.43127 11.8299 2.43127 10.9999 2.91127L5.49988 6.09127C3.49988 7.44127 3.49988 7.44127 3.49988 9.55127Z" stroke="#6B7386" stroke-width="1.5" stroke-linecap="round" stroke-linejoin="round"/>
    <path d="M12.4999 15.4413C14.1567 15.4413 15.4999 14.0981 15.4999 12.4413C15.4999 10.7844 14.1567 9.44128 12.4999 9.44128C10.843 9.44128 9.49988 10.7844 9.49988 12.4413C9.49988 14.0981 10.843 15.4413 12.4999 15.4413Z" stroke="#6B7386" stroke-width="1.5" stroke-linecap="round" stroke-linejoin="round"/>
</svg>
